<?xml version="1.0" encoding="UTF-8"?><svg id="Layer_2" xmlns="http://www.w3.org/2000/svg" viewBox="0 0 870.67 178.73"><defs><style>.cls-1{fill:#fff;}</style></defs><g id="Layer_1-2"><g><path class="cls-1" d="M749.7,175.26l-27.26-43.8c-.31-.49-.31-1.11,.01-1.53l25.14-34.6c1.53-2.11,1.03-3.16-1.52-3.16h-24.02c-.31,0-.68,.27-.99,.71l-21.46,30.89c-.68,.97-1.01,.84-1.01-.37l.05-52.25,.04-7.65c.01-.56-.44-1.03-.99-1.03h-22.69c-.44,0-.85,.33-.85,1.01l.07,8.91-.19,103.88c0,.72,.59,1.29,1.31,1.29h22.02c.73,0,1.33-.6,1.33-1.33v-36.03c0-1.72,.4-1.88,1.2-.48l20.76,36.58c.45,.8,1.24,1.29,2.06,1.28l25.61-.04c1.86-.01,2.32-.77,1.37-2.28Z"/><path class="cls-1" d="M521.29,117.1c-.11-30.77-20.26-31.94-43.29-22.58-.29,.12-.63-.11-.63-.43l-.11-10.88v-20.89c.01-.53-.43-.97-.97-.97h-22.35c-.73,0-1.32,.59-1.32,1.32l.04,20.7-.04,91.76c0,.73,.59,1.32,1.32,1.32h22.02c.73,0,1.33-.6,1.33-1.33v-61.39c0-.37,.25-.71,.63-.84,7.27-2.7,18.98-7.19,19.02,5.79,.05,18.9,.07,37.79,.04,56.7-.01,.6,.44,1.08,1,1.08l22.27-.03c.59,0,1.05-.48,1.05-1.07,.05-19.34,.05-38.75-.01-58.28Z"/><path class="cls-1" d="M444.45,83.71c.69,.11,1.32-.37,1.32-1v-16.68c0-.35-.31-.67-.73-.79-27.09-7.19-62.52-6.47-72.94,26.14-3.7,11.72-5.08,23.54-4.19,35.48,2.06,27.42,12.14,48.23,42.18,51.01,11.34,1.05,23.38,1.54,34.78-2.8,.51-.2,.91-.65,.91-1.28v-15.36c0-1.32-1.15-2.34-2.36-2.08-13.99,2.84-39.8,5.27-45.37-12.22-5.03-15.81-5.47-33.12-.18-50.51,5.06-17.51,31.6-12.18,46.6-9.9Z"/><path class="cls-1" d="M869.6,91.86c-9.17-.87-17.68,.99-25.56,5.56-.55,.31-.81,.19-.77-.39l.03-4.08c.03-.32-.39-.6-.89-.6l-19.03,.03c-.4,0-.73,.35-.73,.76l.04,21.25-.04,62.42c0,.53,.44,.97,.99,.97h22.02c.55,0,1-.45,1-1v-59.39c0-.45,0-1.21,.4-1.39l3.37-1.38c4.95-1.83,11.96-1.89,18.35-1.45,1.04,.07,1.92-.75,1.91-1.79v-18.35c0-.61-.47-1.12-1.07-1.17Z"/><path class="cls-1" d="M668.25,157.6c-.01-.95-.95-1.64-1.95-1.43-13.47,2.84-33.67,5.34-36.47-13.6-1.52-10.32-.83-19.44,2.08-27.37,6.34-10.58,22.61-8.78,33.03-6.83,1.04,.19,2-.55,2-1.55v-15.69c0-.4-.37-.76-.89-.84-23.58-3.7-53.85-3.68-60.11,26.2-2.51,10.85-2.56,21.54-.15,32.1,6.97,30.52,35.82,31.29,60.72,26.34,1.04-.21,1.79-1.07,1.78-2.06l-.04-15.27Z"/><path class="cls-1" d="M70.32,94.03C83.35,65.86,111.37,26.27,142.05,.48c.51-.42,.9-.69,1.38-.26l8.22,8.16c.31,.3,.24,.87-.13,1.32-17.86,21.29-33.39,44.05-46.58,68.56-.16,.28-.29,.55-.48,.9-16.14,31.41-28.87,64.13-38.18,98.17-.23,.83-.85,1.41-1.52,1.4l-6.41-.11c-.25-.01-.63-.34-.93-.85L22.66,119.02s-.06,.03-.08,.04L.13,81c-.2-.34-.17-.74,.05-.98l8.89-9.17c.24-.24,.64-.22,.88,.05l31.29,35.83s.06-.05,.09-.08l13.43,15.38c1.32,1.49,2.39,1.33,3.23-.5l12.32-27.5Z"/><path class="cls-1" d="M140.33,90.56c-10.45-.04-20.87,.76-31.28,2.4-.47,.08-.83,.46-.83,.89v13.48c0,2.03,1.01,2.87,3.04,2.52,7.22-1.26,29.48-4.1,34.71,.81,2.73,2.57,2.41,8.57,2.28,12.05-.01,1.25-.79,1.82-2.32,1.7-7.05-.54-14.83-.01-23.33,1.57-16.79,3.15-22.86,19.82-17.82,34.75,7.92,23.48,48.15,17.53,66.32,14.79,.38-.07,.67-.39,.67-.77l-.03-49.75c1.11-24.46-5.96-34.35-31.42-34.44Zm7.88,70.41c0,.37-.34,.66-.73,.63h-11.01c-1.82,0-3.27-.7-5.03-1.79-2.48-1.53-3.34-4.16-3.7-6.64-2.08-14.62,10.26-12.35,19.72-12.35,.41-.01,.75,.33,.75,.73v19.41Z"/><path class="cls-1" d="M205.56,61.36h-22.35c-.35,0-.63,.32-.63,.72v22.97l-.03,90.45c0,.53,.44,.96,.99,.96h21.69c.73,0,1.32-.59,1.32-1.32l-.04-86.09,.04-26.7c0-.55-.44-.99-.99-.99Z"/><path class="cls-1" d="M282.96,91.05h-22.35c-.45,0-.81,.37-.83,.85l-.12,23.17-.05,38.99c0,.4-.25,.76-.63,.89-5.47,1.92-19.03,6.34-19.02-3.84,0-16.69-.03-33.39-.09-50.06l-.15-9.13c-.01-.48-.41-.87-.89-.87h-22.59c-.29-.01-.53,.35-.53,.8l-.08,20.54c-.09,8.53-.04,23.22,.13,44.11,.23,27.37,27.72,23.41,44.45,16.13,.25-.11,1.63-.99,1.6-.16l-.03,3.7c.05,.17,.69,.29,1.49,.29l19.02-.03c.91,0,1.64-.72,1.64-1.61l-.03-48.75,.04-34.04c0-.55-.44-.99-.99-.99Z"/><path class="cls-1" d="M361.22,120.41c-2.11-18.58-9.9-28.22-27.45-30.44-17.06-2.15-34.7,1.52-41.34,19.56-3.99,12.54-4.6,25.58-1.84,39.13,5.92,32.5,42.82,33.6,67.39,26,.38-.12,.65-.47,.65-.87v-13.68c0-.89-.76-1.56-1.57-1.4-13.73,2.76-37.58,6.85-42.37-11.58l-.37-4.28c-.07-.76,.48-1.41,1.18-1.41h45.44c.29,0,.54-.33,.58-.76,.73-6.87,.62-13.63-.31-20.26Zm-24.94,3.7c-.13,.39-.48,.64-.88,.64h-20.23c-.33,0-.61-.31-.62-.71-.19-4.18,.01-8.73,1.74-12.88,3.75-5.98,13.72-7.45,17.59-.65,1.38,2.44,2.59,5.14,2.45,8.74,0,2.24,.33,3.7-.04,4.86Z"/><path class="cls-1" d="M598.68,120.41c-2.11-18.59-9.9-28.22-27.45-30.44-17.06-2.15-34.7,1.52-41.34,19.56-3.99,12.54-4.6,25.58-1.84,39.13,5.92,32.5,42.82,33.6,67.39,26,.38-.12,.65-.47,.65-.87v-13.68c0-.89-.76-1.56-1.57-1.4-13.73,2.76-37.58,6.85-42.37-11.58l-.37-4.28c-.07-.76,.48-1.41,1.18-1.41h45.44c.29,0,.54-.33,.58-.76,.73-6.87,.62-13.63-.31-20.26Zm-24.94,3.7c-.13,.39-.48,.64-.88,.64h-20.23c-.33,0-.61-.31-.62-.71-.19-4.18,.01-8.73,1.74-12.88,3.75-5.98,13.72-7.45,17.59-.65,1.38,2.44,2.59,5.14,2.45,8.74,0,2.24,.33,3.7-.04,4.86Z"/><path class="cls-1" d="M816.04,120.41c-2.11-18.59-9.9-28.22-27.45-30.44-17.06-2.15-34.7,1.52-41.34,19.56-3.99,12.54-4.6,25.58-1.84,39.13,5.92,32.5,42.82,33.6,67.39,26,.38-.12,.65-.47,.65-.87v-13.68c0-.89-.76-1.56-1.57-1.4-13.73,2.76-37.58,6.85-42.37-11.58l-.37-4.28c-.07-.76,.48-1.41,1.18-1.41h45.44c.29,0,.54-.33,.58-.76,.73-6.87,.62-13.63-.31-20.26Zm-24.94,3.7c-.13,.39-.48,.64-.88,.64h-20.23c-.33,0-.61-.31-.62-.71-.19-4.18,.01-8.73,1.74-12.88,3.75-5.98,13.72-7.45,17.59-.65,1.38,2.44,2.59,5.14,2.45,8.74,0,2.24,.33,3.7-.04,4.86Z"/></g></g></svg>