<?xml version="1.0" encoding="UTF-8" standalone="no"?>
<!-- Generator: Adobe Illustrator 26.3.1, SVG Export Plug-In . SVG Version: 6.00 Build 0)  -->

<svg
   version="1.1"
   id="Layer_1"
   x="0px"
   y="0px"
   viewBox="0 0 884.65224 181.58888"
   xml:space="preserve"
   sodipodi:docname="Logo.svg"
   width="884.65222"
   height="181.58888"
   inkscape:version="1.4 (1:1.4+202410161351+e7c3feb100)"
   xmlns:inkscape="http://www.inkscape.org/namespaces/inkscape"
   xmlns:sodipodi="http://sodipodi.sourceforge.net/DTD/sodipodi-0.dtd"
   xmlns="http://www.w3.org/2000/svg"
   xmlns:svg="http://www.w3.org/2000/svg"><defs
   id="defs12" /><sodipodi:namedview
   id="namedview12"
   pagecolor="#ffffff"
   bordercolor="#000000"
   borderopacity="0.25"
   inkscape:showpageshadow="2"
   inkscape:pageopacity="0.0"
   inkscape:pagecheckerboard="0"
   inkscape:deskcolor="#d1d1d1"
   showgrid="false"
   inkscape:zoom="1.3028842"
   inkscape:cx="497.74187"
   inkscape:cy="138.53879"
   inkscape:window-width="3440"
   inkscape:window-height="1337"
   inkscape:window-x="0"
   inkscape:window-y="0"
   inkscape:window-maximized="1"
   inkscape:current-layer="Layer_1" />
<style
   type="text/css"
   id="style1">
	.st0{fill:#0A0A0A;}
	.st1{fill:#4169E1;}
</style>
<g
   id="g12"
   transform="translate(-55.260612,-77.411111)">
	<path
   class="st0"
   d="M 817,255.6 789.3,211 c -0.3,-0.5 -0.3,-1.1 0,-1.6 l 25.6,-35.2 c 1.6,-2.1 1,-3.2 -1.5,-3.2 H 789 c -0.3,0 -0.7,0.3 -1,0.7 l -21.8,31.4 c -0.7,1 -1,0.9 -1,-0.4 l 0.1,-53.1 v -8.4 c 0,-0.6 -0.4,-1 -1,-1 h -23.1 c -0.4,0 -0.9,0.3 -0.9,1 l 0.1,9.7 -0.2,105.6 c 0,0.7 0.6,1.3 1.3,1.3 h 22.4 c 0.7,0 1.4,-0.6 1.4,-1.4 v -36.6 c 0,-1.7 0.4,-1.9 1.2,-0.5 l 21.1,37.2 c 0.5,0.8 1.3,1.3 2.1,1.3 h 26 c 1.8,0.1 2.3,-0.7 1.3,-2.2 z"
   id="path1" />
	<path
   class="st0"
   d="m 584.9,196.5 c -0.1,-31.3 -20.6,-32.5 -44,-22.9 -0.3,0.1 -0.6,-0.1 -0.6,-0.4 l -0.1,-11.1 v -21.2 c 0,-0.5 -0.4,-1 -1,-1 h -22.7 c -0.7,0 -1.3,0.6 -1.3,1.3 v 21 93.3 c 0,0.7 0.6,1.3 1.3,1.3 h 22.4 c 0.7,0 1.4,-0.6 1.4,-1.4 V 193 c 0,-0.4 0.3,-0.7 0.6,-0.9 7.4,-2.7 19.3,-7.3 19.3,5.9 0.1,19.2 0.1,38.4 0,57.6 0,0.6 0.4,1.1 1,1.1 h 22.6 c 0.6,0 1.1,-0.5 1.1,-1.1 0.1,-19.6 0.1,-39.3 0,-59.1 z"
   id="path2" />
	<path
   class="st0"
   d="m 506.8,162.5 c 0.7,0.1 1.3,-0.4 1.3,-1 v -17 c 0,-0.4 -0.3,-0.7 -0.7,-0.8 -27.5,-7.3 -63.5,-6.6 -74.1,26.6 -3.8,11.9 -5.2,23.9 -4.3,36.1 2.1,27.9 12.3,49 42.9,51.8 11.5,1.1 23.8,1.6 35.3,-2.8 0.5,-0.2 0.9,-0.7 0.9,-1.3 v -15.6 c 0,-1.3 -1.2,-2.4 -2.4,-2.1 -14.2,2.9 -40.4,5.4 -46.1,-12.4 -5.1,-16.1 -5.6,-33.7 -0.2,-51.3 5.2,-17.9 32.1,-12.5 47.4,-10.2 z"
   id="path3" />
	<path
   class="st0"
   d="m 938.9,170.8 c -9.3,-0.9 -18,1 -26,5.7 -0.6,0.3 -0.8,0.2 -0.8,-0.4 v -4.2 c 0,-0.3 -0.4,-0.6 -0.9,-0.6 h -19.3 c -0.4,0 -0.7,0.4 -0.7,0.8 v 21.6 63.4 c 0,0.5 0.4,1 1,1 h 22.4 c 0.6,0 1,-0.5 1,-1 v -60.4 c 0,-0.5 0,-1.2 0.4,-1.4 l 3.4,-1.4 c 5,-1.9 12.2,-1.9 18.6,-1.5 1.1,0.1 2,-0.8 1.9,-1.8 V 172 c 0.1,-0.6 -0.4,-1.2 -1,-1.2 z"
   id="path4" />
	<path
   class="st0"
   d="m 734.3,237.6 c 0,-1 -1,-1.7 -2,-1.5 -13.7,2.9 -34.2,5.4 -37.1,-13.8 -1.5,-10.5 -0.8,-19.8 2.1,-27.8 6.4,-10.8 23,-8.9 33.6,-6.9 1.1,0.2 2,-0.6 2,-1.6 v -16 c 0,-0.4 -0.4,-0.8 -0.9,-0.9 -24,-3.8 -54.7,-3.7 -61.1,26.6 -2.6,11 -2.6,21.9 -0.1,32.6 7.1,31 36.4,31.8 61.7,26.8 1.1,-0.2 1.8,-1.1 1.8,-2.1 z"
   id="path5" />
	<path
   class="st1"
   d="m 126.5,173 c 13.2,-28.6 41.7,-68.9 72.9,-95.1 0.5,-0.4 0.9,-0.7 1.4,-0.3 l 8.4,8.3 c 0.3,0.3 0.2,0.9 -0.1,1.3 -18.2,21.6 -33.9,44.8 -47.3,69.7 -0.2,0.3 -0.3,0.6 -0.5,0.9 -16.4,31.9 -29.3,65.2 -38.8,99.8 -0.2,0.8 -0.9,1.4 -1.5,1.4 l -6.5,-0.1 c -0.3,0 -0.6,-0.3 -0.9,-0.9 L 78.3,198.3 H 78.2 L 55.4,159.6 c -0.2,-0.3 -0.2,-0.8 0.1,-1 l 9,-9.3 c 0.2,-0.2 0.6,-0.2 0.9,0.1 l 31.6,36.5 0.1,-0.1 13.7,15.6 c 1.3,1.5 2.4,1.4 3.3,-0.5 z"
   id="path6" />
	<path
   class="st1"
   d="m 197.7,169.5 c -10.6,0 -21.2,0.8 -31.8,2.4 -0.5,0.1 -0.8,0.5 -0.8,0.9 v 13.7 c 0,2.1 1,2.9 3.1,2.6 7.3,-1.3 30,-4.2 35.3,0.8 2.8,2.6 2.5,8.7 2.3,12.2 0,1.3 -0.8,1.9 -2.4,1.7 -7.2,-0.5 -15.1,0 -23.7,1.6 -17.1,3.2 -23.2,20.1 -18.1,35.3 8,23.9 48.9,17.8 67.4,15 0.4,-0.1 0.7,-0.4 0.7,-0.8 v -50.6 c 1.1,-24.7 -6.1,-34.7 -32,-34.8 z m 8,71.5 c 0,0.4 -0.3,0.7 -0.7,0.6 h -11.2 c -1.9,0 -3.3,-0.7 -5.1,-1.8 -2.5,-1.6 -3.4,-4.2 -3.8,-6.7 -2.1,-14.9 10.4,-12.5 20,-12.5 0.4,0 0.8,0.3 0.8,0.7 z"
   id="path7" />
	<path
   class="st1"
   d="m 264,140.2 h -22.7 c -0.4,0 -0.6,0.3 -0.6,0.7 v 22.9 91.9 c 0,0.5 0.4,1 1,1 h 22 c 0.7,0 1.3,-0.6 1.3,-1.3 v -87.5 -26.7 c 0,-0.5 -0.5,-1 -1,-1 z"
   id="path8" />
	<path
   class="st1"
   d="M 342.7,170 H 320 c -0.5,0 -0.8,0.4 -0.8,0.9 l -0.1,23.5 -0.1,39.6 c 0,0.4 -0.3,0.8 -0.6,0.9 -5.6,2 -19.3,6.4 -19.3,-3.9 0,-17 0,-33.9 -0.1,-50.9 l -0.1,-9.3 c 0,-0.5 -0.4,-0.9 -0.9,-0.9 h -23 c -0.3,0 -0.5,0.4 -0.5,0.8 l -0.1,20.9 c -0.1,8.7 0,23.6 0.1,44.8 0.2,27.8 28.2,23.8 45.2,16.4 0.3,-0.1 1.7,-1 1.6,-0.2 v 3.8 c 0.1,0.2 0.7,0.3 1.5,0.3 h 19.3 c 0.9,0 1.7,-0.7 1.7,-1.6 V 205.6 171 c -0.1,-0.6 -0.6,-1 -1.1,-1 z"
   id="path9" />
	<path
   class="st1"
   d="m 422.2,199.8 c -3,-18.8 -9.9,-28.6 -27.9,-30 -17.4,-1.4 -35.3,0.6 -42,19 -4.1,12.7 -4.7,26 -1.9,39.8 6,33 43.5,34.2 68.5,26.4 0.4,-0.1 0.7,-0.5 0.7,-0.9 v -13.9 c 0,-0.9 -0.8,-1.6 -1.6,-1.4 -14,2.8 -38.2,7 -43.1,-11.8 l -0.4,-4.4 c -0.1,-0.8 0.5,-1.4 1.2,-1.4 h 46.2 c 0.3,0 0.6,-0.3 0.6,-0.8 0.8,-7 0.8,-13.9 -0.3,-20.6 z m -25.3,3.8 c -0.1,0.4 -0.5,0.7 -0.9,0.7 h -20.6 c -0.3,0 -0.6,-0.3 -0.6,-0.7 -0.2,-4.2 0,-8.9 1.8,-13.1 3.8,-6.1 13.9,-7.6 17.9,-0.7 1.4,2.5 2.6,5.2 2.5,8.9 -0.1,2.2 0.2,3.7 -0.1,4.9 z"
   id="path10" />
	<path
   class="st0"
   d="m 663.5,199.8 c -2.1,-18.9 -10.1,-28.7 -27.9,-30.9 -17.3,-2.2 -35.3,1.5 -42,19.9 -4.1,12.7 -4.7,26 -1.9,39.8 6,33 43.5,34.2 68.5,26.4 0.4,-0.1 0.7,-0.5 0.7,-0.9 v -13.9 c 0,-0.9 -0.8,-1.6 -1.6,-1.4 -14,2.8 -38.2,7 -43.1,-11.8 l -0.4,-4.4 c -0.1,-0.8 0.5,-1.4 1.2,-1.4 h 46.2 c 0.3,0 0.6,-0.3 0.6,-0.8 0.8,-7 0.7,-13.8 -0.3,-20.6 z m -25.3,3.8 c -0.1,0.4 -0.5,0.7 -0.9,0.7 h -20.6 c -0.3,0 -0.6,-0.3 -0.6,-0.7 -0.2,-4.2 0,-8.9 1.8,-13.1 3.8,-6.1 13.9,-7.6 17.9,-0.7 1.4,2.5 2.6,5.2 2.5,8.9 -0.1,2.2 0.3,3.7 -0.1,4.9 z"
   id="path11" />
	<path
   class="st0"
   d="m 884.5,199.8 c -2.1,-18.9 -10.1,-28.7 -27.9,-30.9 -17.3,-2.2 -35.3,1.5 -42,19.9 -4.1,12.7 -4.7,26 -1.9,39.8 6,33 43.5,34.2 68.5,26.4 0.4,-0.1 0.7,-0.5 0.7,-0.9 v -13.9 c 0,-0.9 -0.8,-1.6 -1.6,-1.4 -14,2.8 -38.2,7 -43.1,-11.8 l -0.4,-4.4 c -0.1,-0.8 0.5,-1.4 1.2,-1.4 h 46.2 c 0.3,0 0.6,-0.3 0.6,-0.8 0.7,-7 0.6,-13.8 -0.3,-20.6 z m -25.4,3.8 c -0.1,0.4 -0.5,0.7 -0.9,0.7 h -20.6 c -0.3,0 -0.6,-0.3 -0.6,-0.7 -0.2,-4.2 0,-8.9 1.8,-13.1 3.8,-6.1 13.9,-7.6 17.9,-0.7 1.4,2.5 2.6,5.2 2.5,8.9 0,2.2 0.3,3.7 -0.1,4.9 z"
   id="path12" />
</g>
</svg>
